<svg width="512" height="512" viewBox="0 0 512 512" fill="none" xmlns="http://www.w3.org/2000/svg">
<g clip-path="url(#clip0_2201_11)">
<path d="M430.773 200.309C419.073 116.201 346.116 51.2 258.087 51.2C170.057 51.2 97.0993 116.198 85.3982 200.316C53.4349 202.217 27.9272 232.221 27.9272 268.939C27.9272 306.879 55.14 337.745 88.5916 337.745C89.5981 337.745 90.5774 337.635 91.5299 337.452C113.533 407.931 179.9 459.279 258.147 459.279C336.39 459.279 402.754 407.935 424.759 337.451C425.713 337.635 426.693 337.745 427.7 337.745C461.152 337.745 488.364 306.879 488.364 268.939C488.364 232.175 462.793 202.142 430.773 200.309ZM58.6166 268.939C58.6166 249.898 69.5075 234.094 83.7233 231.101L83.7764 286.463C83.7764 293.429 84.2428 300.285 85.0551 307.037C70.1903 304.786 58.6166 288.572 58.6166 268.939ZM258.145 428.863C178.919 428.863 114.466 364.982 114.466 286.448L114.406 224.013C114.406 145.494 178.861 81.6156 258.087 81.6156C337.31 81.6156 401.766 145.494 401.766 224.013V224.028L401.826 286.463C401.826 364.982 337.37 428.863 258.145 428.863ZM431.235 307.038C432.048 300.28 432.515 293.419 432.515 286.448L432.462 231.08C446.73 234.016 457.675 249.851 457.675 268.939C457.675 288.572 446.101 304.787 431.235 307.038Z" fill="black"/>
<path d="M329.533 167.36C302.168 167.36 278.587 183.493 267.802 206.635H248.49C237.704 183.493 214.124 167.36 186.761 167.36C149.256 167.36 118.741 197.602 118.741 234.773C118.741 271.943 149.256 302.186 186.761 302.186C223.49 302.186 253.438 273.162 254.664 237.05H261.628C262.854 273.162 292.801 302.186 329.533 302.186C367.036 302.186 397.55 271.943 397.55 234.773C397.55 197.602 367.036 167.36 329.533 167.36ZM186.761 271.77C166.177 271.77 149.431 255.174 149.431 234.773C149.431 214.372 166.177 197.776 186.761 197.776C207.345 197.776 224.091 214.372 224.091 234.773C224.091 255.174 207.345 271.77 186.761 271.77ZM329.533 271.77C308.949 271.77 292.2 255.174 292.2 234.773C292.2 214.372 308.949 197.776 329.533 197.776C350.118 197.776 366.861 214.372 366.861 234.773C366.861 255.174 350.118 271.77 329.533 271.77Z" fill="black"/>
<path d="M251.863 369.19C224.411 369.19 202.076 348.26 202.076 322.537C202.076 314.136 195.205 307.329 186.731 307.329C178.257 307.329 171.386 314.136 171.386 322.537C171.386 365.032 207.488 399.606 251.863 399.606C260.337 399.606 267.208 392.799 267.208 384.398C267.208 375.997 260.337 369.19 251.863 369.19Z" fill="black"/>
</g>
<defs>
<clipPath id="clip0_2201_11">
<rect width="460.437" height="408.079" fill="white" transform="translate(27.9272 51.2)"/>
</clipPath>
</defs>
</svg>
